# xmcd CD database file
#
# Track frame offsets:
#	150
#	106745
#	138802
#
# Disc length: 2548 seconds
#
# Revision: 0
# Processed by: cddbd v1.5.1PL0 Copyright (c) Steve Scherf et al.
# Submitted via: CDex 1.51
#
DISCID=1a09f203
DTITLE=Art Ensemble Of Chicago - Certain Blacks
DYEAR=1970
DGENRE=Jazz
TTITLE0=Certain Blacks "Do What They Wanna"
TTITLE1=One For Jarman
TTITLE2=Bye Bye Baby
EXTD=YEAR: 1970
EXTT0=
EXTT1=
EXTT2=
PLAYORDER=
